<svg viewBox="0 0 501 596" fill="none" xmlns="http://www.w3.org/2000/svg">
<g clip-path="url(#clip0_52_2)">
<path d="M120.565 297.813L130.743 307.992C84.8395 264.129 66.8711 222.63 84.8519 184.167L134.986 134.032L209.647 208.705L120.552 297.813H120.565Z" fill="url(#paint0_linear_52_2)"/>
<path d="M209.661 386.921L134.988 461.581L21.3416 347.935C-6.22064 320.361 -6.22064 275.253 21.3416 247.691L84.853 184.167C66.8598 222.63 84.8281 264.129 130.744 307.992L209.661 386.921Z" fill="#5316CC"/>
<path d="M473.624 363.389L403.119 433.894C422.792 391.872 399.548 346.205 343.813 297.8L294.276 248.263L105.173 59.1717L137.289 27.0552C173.363 -9.0184 232.382 -9.0184 268.456 27.0552L473.624 232.235C509.697 268.309 509.697 327.328 473.624 363.389Z" fill="#2DEBB1"/>
<path d="M403.119 433.895L268.456 568.558C232.382 604.619 173.363 604.619 137.289 568.558L105.173 536.441L319.462 322.152L343.813 297.801C399.548 346.206 422.804 391.873 403.119 433.895Z" fill="url(#paint1_linear_52_2)"/>
</g>
<defs>
<linearGradient id="paint0_linear_52_2" x1="91.9073" y1="261.976" x2="176.759" y2="177.124" gradientUnits="userSpaceOnUse">
<stop stop-color="#191947"/>
<stop offset="1" stop-color="#5316CC"/>
</linearGradient>
<linearGradient id="paint1_linear_52_2" x1="231.636" y1="597.339" x2="304.144" y2="251.785" gradientUnits="userSpaceOnUse">
<stop stop-color="#2DEBB1"/>
<stop offset="0.13" stop-color="#2CE6AD"/>
<stop offset="0.26" stop-color="#29DAA4"/>
<stop offset="0.39" stop-color="#25C595"/>
<stop offset="0.53" stop-color="#1FA880"/>
<stop offset="0.66" stop-color="#188364"/>
<stop offset="0.8" stop-color="#0F5542"/>
<stop offset="0.93" stop-color="#04201B"/>
<stop offset="0.98" stop-color="#00090A"/>
</linearGradient>
<clipPath id="clip0_52_2">
<rect width="501" height="596" fill="white"/>
</clipPath>
</defs>
</svg>
